<svg display="none" xmlns="http://www.w3.org/2000/svg">

<symbol id="scroll" viewBox="0 0 23 37">
<g>
<path d="M13.154 11.416a1.66 1.66 0 0 1-1.657 1.659 1.66 1.66 0 0 1 0-3.318 1.66 1.66 0 0 1 1.657 1.66zM12.45-.007c5.932.479 10.545 5.451 10.545 11.423V25.49c0 6.347-5.158 11.511-11.5 11.511C5.157 37.001 0 31.837 0 25.491V11.415C-.001 5.44 4.612.468 10.543-.007zm8.637 25.497V11.416c0-5.295-4.303-9.601-9.591-9.601-5.289 0-9.59 4.306-9.59 9.6V25.49c0 5.295 4.302 9.601 9.59 9.601s9.59-4.306 9.59-9.601z"/>
</g>
</symbol>

<symbol id="design" viewBox="0 0 80 83">
<g>
<path d="M79.98 2.014v12.263c0 1.125-.899 2.025-2.024 2.025H66.032c-1.125 0-2.025-.9-2.025-2.025v-4.163H41.959c.225 4.838 12.261 28.24 19.91 41.965.45.788.226 1.913-.45 2.475-6.861 5.85-8.549 11.589-8.999 14.513h2.588c1.125 0 2.025.9 2.025 2.026v9.9c0 1.125-.9 2.025-2.025 2.025H25.085c-1.125 0-2.025-.9-2.025-2.025v-9.9c0-1.126.9-2.026 2.025-2.026h2.587c-.45-2.924-2.137-8.663-9-14.513-.674-.675-.9-1.687-.45-2.475 7.65-13.725 19.687-37.014 19.912-41.965h-22.16v4.163c0 1.125-.9 2.025-2.026 2.025H2.024c-1.125 0-2.025-.9-2.025-2.025V2.014C0 .889.9-.011 2.024-.011h11.812c1.125 0 2.024.9 2.024 2.025v4.163h48.147V2.014c0-1.125.9-2.025 2.025-2.025h11.924c1.125 0 2.025.9 2.025 2.025zM11.924 3.926H3.936v8.326h7.987zM37.46 47.804c0 1.463 1.125 2.588 2.587 2.588 1.463 0 2.588-1.125 2.588-2.588s-1.125-2.588-2.588-2.588c-1.35 0-2.587 1.238-2.587 2.588zm15.636 25.089H27.11v5.962h25.985zm4.612-20.364c-2.7-5.063-10.686-19.913-15.636-30.939v20.026c2.587.9 4.5 3.262 4.5 6.188a6.53 6.53 0 0 1-6.525 6.525 6.53 6.53 0 0 1-6.524-6.525c0-2.926 1.912-5.4 4.5-6.188V21.702C33.183 32.728 25.084 47.58 22.384 52.53c7.087 6.638 8.774 13.163 9.224 16.426h16.874c.45-3.263 2.138-9.788 9.224-16.426zm18.337-48.49h-7.987V12.252h7.987z"/>
</g>
</symbol>

<symbol id="development" viewBox="0 0 79 76">
<g>
<path d="M76.921 75.997H2.078A2.09 2.09 0 0 1-.002 73.9V2.093c0-1.159.93-2.099 2.08-2.099H76.92a2.09 2.09 0 0 1 2.08 2.1v71.805a2.09 2.09 0 0 1-2.08 2.098zM4.156 71.8h70.686V15.08H4.156zM74.842 4.192H4.156v6.691h70.686zM9.181 6.069c.803 0 1.454.658 1.454 1.468 0 .811-.651 1.468-1.454 1.468a1.461 1.461 0 0 1-1.455-1.468c0-.81.651-1.468 1.455-1.468zm4.35.001a1.46 1.46 0 0 1 1.454 1.467c0 .81-.651 1.467-1.454 1.467a1.46 1.46 0 0 1-1.453-1.467c0-.81.65-1.467 1.453-1.467zm4.35 0c.803 0 1.454.657 1.454 1.467 0 .811-.65 1.468-1.454 1.468a1.461 1.461 0 0 1-1.454-1.468c0-.81.651-1.468 1.454-1.468zm11.164 43.107c-.466 0-.93-.18-1.286-.539l-5.66-5.712a1.849 1.849 0 0 1 0-2.597l5.65-5.704a1.807 1.807 0 0 1 2.572 0c.71.717.71 1.879 0 2.596l-4.364 4.407 4.374 4.415c.71.717.71 1.88 0 2.596-.355.358-.82.538-1.286.538zm20.917 0c-.465 0-.932-.18-1.286-.539a1.847 1.847 0 0 1 0-2.596l4.365-4.406-4.375-4.416a1.85 1.85 0 0 1 0-2.596 1.807 1.807 0 0 1 2.572 0l5.66 5.713a1.842 1.842 0 0 1 0 2.596l-5.65 5.704a1.8 1.8 0 0 1-1.286.54zm-13.069 4.241c-.149 0-.301-.018-.452-.057a1.837 1.837 0 0 1-1.312-2.233l4.623-18.28a1.822 1.822 0 0 1 2.212-1.326 1.838 1.838 0 0 1 1.314 2.234l-4.624 18.28c-.21.83-.95 1.382-1.76 1.382z"/>
</g>
</symbol>

<symbol id="pm" viewBox="0 0 79 91">
<g>
<path d="M21.756 38.114c-.402 0-.803-.152-1.11-.457L17.55 34.58a1.552 1.552 0 0 1 0-2.205 1.577 1.577 0 0 1 2.22 0l1.988 1.975 5.086-5.052a1.577 1.577 0 0 1 2.22 0 1.552 1.552 0 0 1 0 2.205l-6.196 6.154c-.308.305-.71.457-1.111.457zm32.555-3.077H35.637c-.866 0-1.57-.698-1.57-1.559s.704-1.559 1.57-1.559h18.674c.866 0 1.57.698 1.57 1.559s-.703 1.559-1.57 1.559zM21.756 64.794c-.402 0-.803-.152-1.11-.456L17.55 61.26a1.553 1.553 0 0 1 0-2.206 1.577 1.577 0 0 1 2.22 0l1.988 1.976 5.086-5.052a1.577 1.577 0 0 1 2.22 0 1.553 1.553 0 0 1 0 2.205l-6.196 6.155c-.308.304-.71.455-1.111.455zm32.555-3.077H35.637c-.866 0-1.57-.697-1.57-1.558 0-.862.704-1.56 1.57-1.56h18.674c.866 0 1.57.698 1.57 1.56 0 .86-.703 1.558-1.57 1.558zm-32.555 16.42c-.402 0-.803-.153-1.11-.457l-3.097-3.078a1.552 1.552 0 0 1 0-2.205 1.577 1.577 0 0 1 2.22 0l1.988 1.976 5.086-5.052a1.577 1.577 0 0 1 2.22 0 1.551 1.551 0 0 1 0 2.205l-6.196 6.154a1.58 1.58 0 0 1-1.111.457zm32.555-3.079H35.637c-.866 0-1.57-.698-1.57-1.559s.704-1.559 1.57-1.559h18.674c.866 0 1.57.698 1.57 1.56 0 .86-.703 1.558-1.57 1.558zM21.756 51.454a1.57 1.57 0 0 1-1.11-.457L17.55 47.92a1.552 1.552 0 0 1 0-2.205 1.577 1.577 0 0 1 2.22 0l1.988 1.974 5.086-5.051a1.577 1.577 0 0 1 2.22 0 1.551 1.551 0 0 1 0 2.205l-6.196 6.154c-.308.305-.71.457-1.111.457zm32.555-3.076H35.637c-.866 0-1.57-.698-1.57-1.56 0-.86.704-1.558 1.57-1.558h18.674c.866 0 1.57.698 1.57 1.559s-.703 1.56-1.57 1.56zm24.67-34.895v75.438a2.079 2.079 0 0 1-2.093 2.08H2.081A2.079 2.079 0 0 1-.01 88.92V13.483c0-1.143.931-2.078 2.092-2.078h20.467c.22-3.18 2.887-5.686 6.13-5.686h5.995C34.705 2.57 37.3.013 40.48.013c3.19 0 5.774 2.557 5.816 5.706h5.985c3.253 0 5.921 2.505 6.14 5.686h18.467c1.161 0 2.093.935 2.093 2.078zm-52.268-1.641v4.26h27.546v-4.26a1.97 1.97 0 0 0-1.977-1.965h-6.54c-1.997 0-3.63-1.62-3.63-3.606v-.478a1.627 1.627 0 1 0-3.254 0v.478c0 1.984-1.632 3.606-3.64 3.606h-6.54a1.968 1.968 0 0 0-1.967 1.965zm48.081 75v-71.28H58.441v2.62a2.078 2.078 0 0 1-2.092 2.078H24.62a2.078 2.078 0 0 1-2.093-2.079v-2.619H4.173v71.28zM40.484 10.14c1.11 0 2.01.894 2.01 1.997 0 1.102-.9 1.996-2.01 1.996-1.11 0-2.01-.894-2.01-1.996 0-1.103.9-1.997 2.01-1.997z"/>
</g>
</symbol>

</svg>
